<svg xmlns="http://www.w3.org/2000/svg" viewBox="0 0 500 500"><g id="freepik--background-simple--inject-6"><path d="M386.63,179c-12.07-27.21-44.16-107.73-128.5-107.79-87.9-.07-101.81,47.21-90.55,111.4,10.52,59.94-79,44.72-64.8,125.8,12,68.65,157,116.89,253.32,32.75C414.57,290,400.27,209.7,386.63,179Z" style="fill:#F092DD"></path><path d="M386.63,179c-12.07-27.21-44.16-107.73-128.5-107.79-87.9-.07-101.81,47.21-90.55,111.4,10.52,59.94-79,44.72-64.8,125.8,12,68.65,157,116.89,253.32,32.75C414.57,290,400.27,209.7,386.63,179Z" style="fill:#fff;opacity:0.9"></path></g><g id="freepik--Shadow--inject-6"><ellipse id="freepik--path--inject-6" cx="250" cy="412.39" rx="193.89" ry="11.32" style="fill:#f5f5f5"></ellipse></g><g id="freepik--Character--inject-6"><path d="M187,272c7.07,3.63,14.06,7.43,21,11.27,5.86,3.25,14.55,7.88,20.08,11.51.22.1.4.3.21,1.26a17.11,17.11,0,0,1-3.75,7.6c-.65.74-.91.71-1.13.59-6.21-2.16-15.24-6.26-21.35-8.93-7.28-3.21-14.54-6.44-21.72-9.85-8.92-4.7-2.55-17.67,6.64-13.45Z" style="fill:#e4897b"></path><path d="M193.27,253.82l-1-.51a.17.17,0,0,0-.23.08.18.18,0,0,0,.07.23l1,.5,0,0a.18.18,0,0,0,.19-.09A.17.17,0,0,0,193.27,253.82Z" style="fill:#263238"></path><path d="M196.77,255.91l2,.91h0a.16.16,0,0,0,.19-.1.17.17,0,0,0-.08-.22l-2-.91a.17.17,0,0,0-.23.08A.18.18,0,0,0,196.77,255.91Z" style="fill:#263238"></path><path d="M202.55,258.49c1.43.6,2.81,1.15,4.12,1.63h0a.18.18,0,0,0,.2-.11.18.18,0,0,0-.1-.22c-1.3-.48-2.68-1-4.1-1.62a.17.17,0,0,0-.23.09A.18.18,0,0,0,202.55,258.49Z" style="fill:#263238"></path><path d="M208.75,260.87a49.16,49.16,0,0,0,5.66,1.59,15.56,15.56,0,0,0,4.76.37c3.78-.44,4.18-2,4.08-2.92-.2-1.87-2.9-4-4.81-3.82A1.74,1.74,0,0,0,217,259a2.54,2.54,0,0,0,2.36,1,.17.17,0,0,0,.15-.19.16.16,0,0,0-.19-.15,2.2,2.2,0,0,1-2-.86,1.56,1.56,0,0,1-.26-1.54,1.58,1.58,0,0,1,1.42-.82c1.72-.18,4.25,1.83,4.43,3.51.15,1.34-1.2,2.25-3.78,2.55-2.24.26-5.7-.39-10.27-1.95a.16.16,0,0,0-.21.11A.16.16,0,0,0,208.75,260.87Z" style="fill:#263238"></path><path d="M191.46,256l-1.3-.72a.17.17,0,1,0-.17.29l1.31.73,0,0a.17.17,0,0,0,.18-.09A.16.16,0,0,0,191.46,256Z" style="fill:#263238"></path><path d="M198.51,259.69c-1.58-.78-3.18-1.61-4.75-2.43a.16.16,0,0,0-.23.07.18.18,0,0,0,.07.23c1.57.83,3.17,1.65,4.76,2.44h0a.17.17,0,0,0,.19-.09A.17.17,0,0,0,198.51,259.69Z" style="fill:#263238"></path><path d="M210.06,265c-3-1.21-6.27-2.69-9.76-4.38a.17.17,0,0,0-.23.07.18.18,0,0,0,.08.23c3.49,1.7,6.78,3.18,9.78,4.39,5.9,2.39,7.51,5,7.82,6.75a3.66,3.66,0,0,1-1,3.29,3.62,3.62,0,0,1-3.11.41,4.8,4.8,0,0,1-3.49-2.73,1.12,1.12,0,0,1,.45-1.47,3.46,3.46,0,0,1,3.55,0,.92.92,0,0,1,.06,1.25.18.18,0,0,0,.06.24.17.17,0,0,0,.23-.06,1.26,1.26,0,0,0-.12-1.68,3.75,3.75,0,0,0-4-.06,1.46,1.46,0,0,0-.58,1.87,5.17,5.17,0,0,0,3.73,2.95l.19,0a3.8,3.8,0,0,0,3.23-.54,4,4,0,0,0,1.09-3.6C217.76,270.12,216.11,267.41,210.06,265Z" style="fill:#263238"></path><path d="M226.81,267a2.59,2.59,0,0,0-2.07-1.78,2,2,0,0,0-2.29.78.16.16,0,0,0,.05.23.18.18,0,0,0,.24-.05,1.76,1.76,0,0,1,1.93-.63,2.28,2.28,0,0,1,1.8,1.49c.07.56-.42.94-.84,1.16-2.77,1.47-9-2.12-9.11-2.16a.17.17,0,0,0-.23.06.18.18,0,0,0,.06.24,23.39,23.39,0,0,0,6,2.37,5.28,5.28,0,0,0,3.49-.21C226.73,268,226.86,267.38,226.81,267Z" style="fill:#263238"></path><path d="M208.55,262.36a.17.17,0,0,0-.22.09.17.17,0,0,0,.1.22s2.51,1,5.91,2.56h0a.17.17,0,0,0,.19-.09.18.18,0,0,0-.08-.23C211.07,263.33,208.58,262.37,208.55,262.36Z" style="fill:#263238"></path><g style="opacity:0.7000000000000001"><path d="M193.27,253.82l-1-.51a.17.17,0,0,0-.23.08.18.18,0,0,0,.07.23l1,.5,0,0a.18.18,0,0,0,.19-.09A.17.17,0,0,0,193.27,253.82Z" style="fill:#fff"></path><path d="M196.77,255.91l2,.91h0a.16.16,0,0,0,.19-.1.17.17,0,0,0-.08-.22l-2-.91a.17.17,0,0,0-.23.08A.18.18,0,0,0,196.77,255.91Z" style="fill:#fff"></path><path d="M202.55,258.49c1.43.6,2.81,1.15,4.12,1.63h0a.18.18,0,0,0,.2-.11.18.18,0,0,0-.1-.22c-1.3-.48-2.68-1-4.1-1.62a.17.17,0,0,0-.23.09A.18.18,0,0,0,202.55,258.49Z" style="fill:#fff"></path><path d="M208.75,260.87a49.16,49.16,0,0,0,5.66,1.59,15.56,15.56,0,0,0,4.76.37c3.78-.44,4.18-2,4.08-2.92-.2-1.87-2.9-4-4.81-3.82A1.74,1.74,0,0,0,217,259a2.54,2.54,0,0,0,2.36,1,.17.17,0,0,0,.15-.19.16.16,0,0,0-.19-.15,2.2,2.2,0,0,1-2-.86,1.56,1.56,0,0,1-.26-1.54,1.58,1.58,0,0,1,1.42-.82c1.72-.18,4.25,1.83,4.43,3.51.15,1.34-1.2,2.25-3.78,2.55-2.24.26-5.7-.39-10.27-1.95a.16.16,0,0,0-.21.11A.16.16,0,0,0,208.75,260.87Z" style="fill:#fff"></path><path d="M191.46,256l-1.3-.72a.17.17,0,1,0-.17.29l1.31.73,0,0a.17.17,0,0,0,.18-.09A.16.16,0,0,0,191.46,256Z" style="fill:#fff"></path><path d="M198.51,259.69c-1.58-.78-3.18-1.61-4.75-2.43a.16.16,0,0,0-.23.07.18.18,0,0,0,.07.23c1.57.83,3.17,1.65,4.76,2.44h0a.17.17,0,0,0,.19-.09A.17.17,0,0,0,198.51,259.69Z" style="fill:#fff"></path><path d="M210.06,265c-3-1.21-6.27-2.69-9.76-4.38a.17.17,0,0,0-.23.07.18.18,0,0,0,.08.23c3.49,1.7,6.78,3.18,9.78,4.39,5.9,2.39,7.51,5,7.82,6.75a3.66,3.66,0,0,1-1,3.29,3.62,3.62,0,0,1-3.11.41,4.8,4.8,0,0,1-3.49-2.73,1.12,1.12,0,0,1,.45-1.47,3.46,3.46,0,0,1,3.55,0,.92.92,0,0,1,.06,1.25.18.18,0,0,0,.06.24.17.17,0,0,0,.23-.06,1.26,1.26,0,0,0-.12-1.68,3.75,3.75,0,0,0-4-.06,1.46,1.46,0,0,0-.58,1.87,5.17,5.17,0,0,0,3.73,2.95l.19,0a3.8,3.8,0,0,0,3.23-.54,4,4,0,0,0,1.09-3.6C217.76,270.12,216.11,267.41,210.06,265Z" style="fill:#fff"></path><path d="M226.81,267a2.59,2.59,0,0,0-2.07-1.78,2,2,0,0,0-2.29.78.16.16,0,0,0,.05.23.18.18,0,0,0,.24-.05,1.76,1.76,0,0,1,1.93-.63,2.28,2.28,0,0,1,1.8,1.49c.07.56-.42.94-.84,1.16-2.77,1.47-9-2.12-9.11-2.16a.17.17,0,0,0-.23.06.18.18,0,0,0,.06.24,23.39,23.39,0,0,0,6,2.37,5.28,5.28,0,0,0,3.49-.21C226.73,268,226.86,267.38,226.81,267Z" style="fill:#fff"></path><path d="M208.55,262.36a.17.17,0,0,0-.22.09.17.17,0,0,0,.1.22s2.51,1,5.91,2.56h0a.17.17,0,0,0,.19-.09.18.18,0,0,0-.08-.23C211.07,263.33,208.58,262.37,208.55,262.36Z" style="fill:#fff"></path></g><rect x="135.38" y="327.12" width="46.44" height="22.78" style="fill:#e4897b"></rect><path d="M127.89,268.19s32.85-7.23,60,3.32a195.55,195.55,0,0,0,1.56,21.54c1.26,10.27-2.94,23.31-5.57,36.42l-50.18.36s2.71-13.66-8.43-40.09Z" style="fill:#F092DD"></path><path d="M127.89,268.19s32.85-7.23,60,3.32c0,0-.53,8.26,1.56,21.54,1.6,10.22-2.94,23.31-5.57,36.42l-50.18.36s2.71-13.66-8.43-40.09Z" style="opacity:0.1"></path><path d="M151.9,249.71c-5.26,0-7.65-1.92-10.08-7.69a.23.23,0,0,1,.13-.32.25.25,0,0,1,.33.13c2.55,6,5.05,7.7,11.16,7.33a.26.26,0,0,1,.27.24.25.25,0,0,1-.24.26C152.92,249.7,152.4,249.71,151.9,249.71Z" style="fill:#263238"></path><path d="M183.59,215.29a19.11,19.11,0,0,1,6.31,15c-.38,5.09-6.31,9.33-4.61,22.65-3.7-4.12-13.72-27.65-19-44.59C166.31,208.36,178.13,210.29,183.59,215.29Z" style="fill:#263238"></path><path d="M170.42,209.59c-8-3.65-15.77.65-20.3,3.83s-8.07,10.77-8.07,16.88-.17,13.49,3.83,16.67,7.58,2.44,7.58,2.44l30.13-27.81S178.38,213.23,170.42,209.59Z" style="fill:#263238"></path><path d="M164.61,275.52c-11.54-2.84-14.49-8.25-14.49-8.25,5.31-4,5.2-10.72,4.45-15a23.64,23.64,0,0,0-1-4l13.8,4.24a41.23,41.23,0,0,0-1.23,5.88,18.54,18.54,0,0,0-.1,4.4c.48,4.32,2.87,4.66,2.87,4.66C170.85,272.35,164.61,275.52,164.61,275.52Z" style="fill:#e4897b"></path><path d="M170.26,216.54c12.21,1.77,15.2,8.88,14.28,21.6-1.16,15.89-6.26,26.57-21,21C143.4,251.58,150,213.61,170.26,216.54Z" style="fill:#e4897b"></path><path d="M176.74,236.31a26,26,0,0,0,2.82,5.58,3.39,3.39,0,0,1-3.42.92Z" style="fill:#de5753"></path><path d="M164.93,227.38a.53.53,0,0,0,.36-.13c2-1.81,5-1,5.07-1a.52.52,0,0,0,.65-.36.54.54,0,0,0-.37-.65c-.15,0-3.67-1-6.06,1.2a.53.53,0,0,0,0,.75A.51.51,0,0,0,164.93,227.38Z" style="fill:#263238"></path><path d="M184.18,228.78a.53.53,0,0,0,.35-.92,6.24,6.24,0,0,0-5.18-1.83.52.52,0,0,0-.41.62.54.54,0,0,0,.62.41h0a5.22,5.22,0,0,1,4.27,1.58A.54.54,0,0,0,184.18,228.78Z" style="fill:#263238"></path><path d="M153.93,235.21s7.16-9.22,7.42-17.09c0,0,25.64-6.4,23.28,18.35,0,0,5.52-21.48-15.41-25s-25.29,27.22-15.76,37.94C153.46,249.41,149.49,241,153.93,235.21Z" style="fill:#263238"></path><path d="M155.55,238.07a5.41,5.41,0,0,0-5.06-5.73c-3.85-.13-6.77,7.38,2.37,10.61C154.18,243.41,155.13,242.2,155.55,238.07Z" style="fill:#e4897b"></path><path d="M172.23,248.65c0,1,.54,1.77,1.25,1.79s1.29-.77,1.31-1.75-.54-1.77-1.25-1.78S172.24,247.67,172.23,248.65Z" style="fill:#2e353a"></path><path d="M170.32,234.13a.26.26,0,0,0,0-.28.24.24,0,0,0-.33-.09h0c-1.85,1.06-3.34.84-5.29,0a.26.26,0,0,0-.34.1.25.25,0,0,0,.11.34c2.1,1,3.78,1.17,5.77,0Z" style="fill:#263238"></path><path d="M177.7,234.83a.28.28,0,0,1,0-.28.24.24,0,0,1,.34-.07h0c1.78,1.18,3.28,1.06,5.29.33a.24.24,0,0,1,.32.12.24.24,0,0,1-.12.33c-2.16.82-3.85.93-5.76-.38Z" style="fill:#263238"></path><ellipse cx="137.96" cy="215.29" rx="10.35" ry="11.28" style="fill:#263238"></ellipse><path d="M180.73,214.25c2.76,2.43,5.89,8.05,5.93,11.14s-4.18,5.28-4.18,5.28a7.44,7.44,0,0,0-5.1-6.69,10.34,10.34,0,0,1-2.19,5.73c-.72-6.33-6.65-9.47-13.84-11.59l4.67-8.31S178,211.83,180.73,214.25Z" style="fill:#263238"></path><path d="M157.77,235.23a.24.24,0,0,1-.24-.22c-.4-3,.5-4.91,1.53-7.18a19.36,19.36,0,0,0,2.2-10,.25.25,0,1,1,.5,0A20,20,0,0,1,159.52,228c-1,2.2-1.87,4.09-1.5,6.91a.25.25,0,0,1-.21.28Z" style="fill:#263238"></path><path d="M186.66,253.2a.25.25,0,0,1-.24-.18c-2-6.4-.24-11.16,1.3-15.36,1.43-3.93,2.79-7.63,1.06-12.16a.26.26,0,0,1,.14-.33.26.26,0,0,1,.33.15c1.79,4.7.4,8.5-1.06,12.51-1.59,4.33-3.22,8.8-1.29,15a.25.25,0,0,1-.17.31Z" style="fill:#263238"></path><path d="M137.8,226.5h0a13.23,13.23,0,0,1-13.3-12,.25.25,0,1,1,.49-.05A12.75,12.75,0,0,0,137.81,226a.24.24,0,0,1,.24.25A.25.25,0,0,1,137.8,226.5Z" style="fill:#263238"></path><path d="M136.78,226.5h0a10.28,10.28,0,0,1-9.12-6.58,13.07,13.07,0,0,1,2-13.1c2.45-2.78,6-3.72,10.07-2.65a.25.25,0,0,1-.12.48c-3.86-1-7.26-.13-9.57,2.5a12.55,12.55,0,0,0-1.89,12.58A9.79,9.79,0,0,0,136.8,226a.25.25,0,0,1,0,.5Z" style="fill:#263238"></path><path d="M133.72,301c-1.78.18-3.5-3-5.23-5.65l-3.26-5.61c-1.68-5.22,1.13-13.58,3.39-21.55,4.18-.45,7.53,1.11,9,6.33,2,6.52,2.48,13.89,1.18,18.53C137.69,297,137.62,301,133.72,301Z" style="fill:#e4897b"></path><path d="M125.22,289.42a4.26,4.26,0,0,0,3.42,1.82c1.81,0,2.61-2.53,3.86-5,1.22-2.84,2.4-8.9,1.22-13.32l-7.84,5.14C124.29,282.19,123.78,286,125.22,289.42Z" style="opacity:0.2"></path><path d="M182.72,341.72,190,354.5c19.55-4.55,82.23-14.11,89.93,7.39,9.56,26.73-59.57,48-97.83,49.34s-71.63-7.82-47.44-63.59Z" style="fill:#263238"></path><path d="M182.72,341.72,190,354.5c19.55-4.55,82.23-14.11,89.93,7.39,9.56,26.73-59.57,48-97.83,49.34s-71.63-7.82-47.44-63.59Z" style="isolation:isolate;opacity:0.2"></path><g style="opacity:0"><path d="M182.72,341.72,190,354.5c19.55-4.55,82.23-14.11,89.93,7.39,9.56,26.73-59.57,48-97.83,49.34s-71.63-7.82-47.44-63.59Z" style="fill:#fff"></path></g><path d="M215.3,390.62s19.07-23.8,32.53-26.74c0,0-74.52-.09-92.58,6L200.54,399Z" style="opacity:0.2"></path><polygon points="216.99 390.02 210.91 392.19 203.35 394.88 205.29 403.15 212.61 401.59 216.99 400.66 216.99 390.02" style="fill:#e4897b"></polygon><path d="M207.24,402.74l-1.2-8.82c-1.66.29-7.3.65-7.3.65s-5.21-.2-6.51,1.48c-3.81,4.91-1.43,26.58,1.11,27.34.93.28,1.91-1,2.31-1.88,1.28-2.79,3.54-10.09,4.64-12.4C201.57,406.4,205.5,403,207.24,402.74Z" style="fill:#e4897b"></path><polygon points="216.99 390.02 210.91 392.19 212.61 401.59 216.99 400.66 216.99 390.02" style="isolation:isolate;opacity:0.2"></polygon><polygon points="215.4 403.01 219.93 403.33 216.9 387.76 211.76 390.6 215.4 403.01" style="fill:#263238"></polygon><polygon points="215.4 403.01 219.93 403.33 216.9 387.76 211.76 390.6 215.4 403.01" style="fill:#fff;isolation:isolate;opacity:0.4"></polygon><polygon points="215.21 397.62 216.56 395.55 218.68 396.91 219.93 401.12 215.21 397.62" style="opacity:0.2"></polygon><polygon points="202.84 407.24 218.81 412.18 226.47 414.56 229.88 406.77 223.08 403.63 206.48 395.97 202.84 407.24" style="fill:#e4897b"></polygon><path d="M228.06,405.93l-4.32,7.78c1.75.85,5.36,3.32,5.36,3.32s4.93,3.82,7,3.25c6-1.65,17.06-20.42,15.49-22.55-.58-.78-2.13-.35-3,.11-2.7,1.47-8.86,6-11.14,7.16A11.65,11.65,0,0,1,228.06,405.93Z" style="fill:#e4897b"></path><polygon points="202.84 407.24 218.81 412.18 223.08 403.63 206.48 395.97 202.84 407.24" style="isolation:isolate;opacity:0.2"></polygon><path d="M220.5,401.55S159.07,354.94,136,352.83s-29.23,17.7-21.5,31.69,32,22.82,32,22.82S129.66,385.52,132,381s8.21,3,8.21,3,40,19.3,76.24,27.46Z" style="fill:#263238"></path><path d="M220.5,401.55S159.07,354.94,136,352.83s-29.23,17.7-21.5,31.69,32,22.82,32,22.82S129.66,385.52,132,381s8.21,3,8.21,3,40,19.3,76.24,27.46Z" style="fill:#fff;opacity:0"></path><polygon points="221.72 400.67 218.3 397.62 211.4 411.83 217.22 412.63 221.72 400.67" style="fill:#263238"></polygon><polygon points="221.72 400.67 218.3 397.62 211.4 411.83 217.22 412.63 221.72 400.67" style="fill:#fff;isolation:isolate;opacity:0.4"></polygon><polygon points="134.51 344.73 134.68 347.64 182.72 341.72 182.72 339.84 134.51 344.73" style="fill:#263238"></polygon><polygon points="134.51 344.73 134.68 347.64 182.72 341.72 182.72 339.84 134.51 344.73" style="fill:#fff;opacity:0.1"></polygon><polygon points="135.38 337.24 146.8 339.84 155.57 337.24 155.57 329.68 135.38 329.76 135.38 337.24" style="opacity:0.2"></polygon><path d="M131.76,333.16s12.9,4.29,14.36,4.07,7.82-1.7,7.82-2.21-2.18-10-2.18-10l-11.38-2.64s-6.49.31-9.34,2.57Z" style="fill:#e4897b"></path><path d="M134.36,280.85c-12.42,12.76-27.09,24.79-39.06,37.87l-1.61-9.89c9.18,5.89,20.15,10.13,30.52,13.86,3.61,1.31,7.29,2.42,11,3.49a3.74,3.74,0,0,1-1.29,7.31,137.4,137.4,0,0,1-35.6-8.05,82.46,82.46,0,0,1-11.66-5.3,6.45,6.45,0,0,1-1.9-9.53c11.54-14.65,25.79-27.46,39.1-40.42,7.3-6.54,17.17,3.43,10.54,10.66Z" style="fill:#e4897b"></path><polygon points="188.78 287.3 221.54 293.52 220.01 297.81 189.74 289.88 189.05 289.55 188.78 287.3" style="opacity:0.2"></polygon><path d="M186.08,297.61s-12.36,5.17-13.82,5.06-7.82-1.09-7.85-1.59,1.4-9.95,1.4-9.95l11-3.44s6.41-.18,9.38,1.83Z" style="fill:#e4897b"></path><path d="M224.68,305c-11.87-2-24.59-4.3-36.4-6.72-1.17-.29-3.37-.78-4.52-1.06-.22,0-.43-.12-.54-.84a10.18,10.18,0,0,1,.92-6.15c.45-1,.74-.59,1.42-.6l1.32.09c12.94,1,26.58,2.76,39.42,4.41,7.28,1.23,5.72,11.82-1.62,10.87Z" style="fill:#e4897b"></path></g><g id="freepik--Bubble--inject-6"><path d="M241.22,231.72v-.94H200.08a1.26,1.26,0,1,0,0,.94Z" style="fill:#F092DD"></path><circle cx="325.86" cy="227.51" r="81.64" transform="translate(-65.44 297.05) rotate(-45)" style="fill:#F092DD"></circle><circle cx="325.86" cy="227.51" r="81.64" transform="translate(-65.44 297.05) rotate(-45)" style="fill:#fff;opacity:0.7000000000000001"></circle><path d="M287.38,295.6l6-29.22c15,.63,36.15,3.15,38.61,0,3-3.19,2.95-10.76,3.13-18l4.17-4.7a5.56,5.56,0,0,0-2.35-6.26c3-.5,5.49-1.62,6.79-4.17l-3.13-9.39c4.92-.44,9.92-.8,12.26-3.91,1.49-3.23-8.24-21.17-14.61-34.7,2.11-2.13,4-3.62,3.91-9.13l-1.3-15.65c-1.2-5.4-3.6-9-7.31-10.7-35.95-1.79-67.45,13.08-81.68,53.66C242.53,240.14,254.55,275.35,287.38,295.6Z" style="fill:#F092DD"></path><path d="M359.08,228.52a35,35,0,0,1-5.34-.41l.33-2.14a31.81,31.81,0,0,0,18.45-2.62c10.8-5.16,11-14.64,11-15h2.18c0,.45-.14,11.23-12.22,17A33.24,33.24,0,0,1,359.08,228.52Z" style="fill:#F092DD"></path><polygon points="355.54 223.99 349.36 225.99 354.18 230.34 355.54 223.99" style="fill:#F092DD"></polygon><path d="M372.46,259.17a36.49,36.49,0,0,1,.9,5.28l-2.16.2a31.83,31.83,0,0,0-7-17.27c-7.61-9.23-16.86-7.11-17.25-7l-.52-2.11c.44-.11,10.94-2.57,19.45,7.75A33.19,33.19,0,0,1,372.46,259.17Z" style="fill:#F092DD"></path><polygon points="368.92 263.71 372.35 269.22 375.41 263.49 368.92 263.71" style="fill:#F092DD"></polygon><path d="M241.72,227.38h-1c0-.36,0-.72,0-1.08,0-1.77.09-3.55.23-5.3l1,.07c-.13,1.73-.2,3.49-.22,5.24C241.72,226.66,241.72,227,241.72,227.38Z" style="fill:#F092DD"></path><path d="M241,234.56c-.16-1.89-.26-3.8-.29-5.7l1,0c0,1.88.13,3.77.29,5.64Z" style="fill:#F092DD"></path><path d="M249.32,264.66a84.58,84.58,0,0,1-8.1-28l1-.11a83.37,83.37,0,0,0,8,27.67Z" style="fill:#F092DD"></path><path d="M255.13,274.73c-1.14-1.71-2.24-3.48-3.26-5.26l.87-.5c1,1.76,2.09,3.51,3.22,5.2Z" style="fill:#F092DD"></path><path d="M261.46,283c-1.51-1.74-3-3.58-4.34-5.45l.81-.59c1.35,1.85,2.8,3.66,4.29,5.39Z" style="fill:#F092DD"></path><path d="M286.07,302.63a85.41,85.41,0,0,1-22.15-16.9l.73-.69a84.56,84.56,0,0,0,21.88,16.71Z" style="fill:#F092DD"></path><path d="M294.58,306.56c-1.52-.6-3.06-1.26-4.57-2l.42-.9c1.49.69,3,1.35,4.52,1.94Z" style="fill:#F092DD"></path><path d="M303.16,309.44c-2-.55-4-1.19-6-1.9l.34-.94c1.93.7,3.92,1.33,5.91,1.88Z" style="fill:#F092DD"></path><path d="M325.86,312.51a85.58,85.58,0,0,1-19.25-2.19l.22-1a84.92,84.92,0,0,0,29,1.59l.11,1A86.16,86.16,0,0,1,325.86,312.51Z" style="fill:#F092DD"></path><path d="M340.09,311.32l-.16-1c2.08-.36,4.17-.79,6.22-1.3l.24,1C344.32,310.52,342.2,311,340.09,311.32Z" style="fill:#F092DD"></path><path d="M349.57,309.15l-.28-1c1.95-.56,3.92-1.21,5.84-1.93l.35.94C353.53,307.92,351.54,308.58,349.57,309.15Z" style="fill:#F092DD"></path><path d="M358.27,306.1l-.38-.92a85.23,85.23,0,0,0,29.7-20.69l.73.68A86,86,0,0,1,358.27,306.1Z" style="fill:#F092DD"></path><path d="M390.61,282.59l-.76-.65c1.31-1.53,2.58-3.13,3.78-4.75l.8.59C393.22,279.43,391.93,281,390.61,282.59Z" style="fill:#F092DD"></path><path d="M396.78,274.43l-.83-.56c1.25-1.88,2.44-3.83,3.54-5.81l.87.49C399.25,270.54,398.05,272.52,396.78,274.43Z" style="fill:#F092DD"></path><path d="M402.75,263.9l-.9-.43a83.27,83.27,0,0,0,7.5-25.69l1,.12A84.3,84.3,0,0,1,402.75,263.9Z" style="fill:#F092DD"></path><path d="M410.79,233.33l-1-.07c.14-1.94.2-3.92.2-5.88h1C411,229.36,410.92,231.37,410.79,233.33Z" style="fill:#F092DD"></path><path d="M409.84,222.23c-.13-2.16-.35-4.34-.64-6.48l1-.13c.3,2.16.52,4.37.65,6.55Z" style="fill:#F092DD"></path><path d="M407.66,207.65a83.59,83.59,0,0,0-13-28.69l.81-.57a84.28,84.28,0,0,1,13.18,29Z" style="fill:#F092DD"></path><path d="M392.12,175.58c-1.43-1.83-3-3.62-4.53-5.32l.73-.68c1.59,1.72,3.14,3.53,4.59,5.38Z" style="fill:#F092DD"></path><path d="M384.35,167c-1.5-1.45-3.07-2.86-4.67-4.2l.64-.77c1.62,1.36,3.21,2.79,4.73,4.26Z" style="fill:#F092DD"></path><path d="M375.89,159.77a83.42,83.42,0,0,0-29.21-13.92l.25-1A84.39,84.39,0,0,1,376.48,159Z" style="fill:#F092DD"></path><path d="M343.73,145.15c-1.86-.41-3.77-.75-5.67-1l.14-1c1.93.28,3.86.63,5.75,1Z" style="fill:#F092DD"></path><path d="M335.8,143.82c-2.28-.27-4.6-.45-6.91-.53l0-1c2.33.09,4.68.27,7,.54Z" style="fill:#F092DD"></path><path d="M299.12,147.59l-.32-1a84.77,84.77,0,0,1,26.18-4.4h.88v1H325A83.72,83.72,0,0,0,299.12,147.59Z" style="fill:#F092DD"></path><path d="M290.55,151l-.42-.91c1.67-.77,3.38-1.5,5.08-2.16l.36.93C293.89,149.52,292.2,150.24,290.55,151Z" style="fill:#F092DD"></path><path d="M283.11,154.93l-.51-.86c1.37-.81,2.77-1.59,4.17-2.32l.46.89C285.84,153.36,284.46,154.13,283.11,154.93Z" style="fill:#F092DD"></path><path d="M258.43,177.1l-.8-.6a85.47,85.47,0,0,1,21.3-20.13l.55.83A84.75,84.75,0,0,0,258.43,177.1Z" style="fill:#F092DD"></path><path d="M254.21,183.3l-.85-.52c.64-1,1.3-2.07,2-3.07l.83.57C255.5,181.26,254.84,182.28,254.21,183.3Z" style="fill:#F092DD"></path><path d="M251.48,188.06l-.88-.47c.41-.78.84-1.55,1.27-2.31l.87.49C252.31,186.53,251.89,187.29,251.48,188.06Z" style="fill:#F092DD"></path><path d="M242.39,216.7l-1-.13a84.43,84.43,0,0,1,6.95-24.41l.91.42A83.38,83.38,0,0,0,242.39,216.7Z" style="fill:#F092DD"></path></g><g id="freepik--Bottles--inject-6"><path d="M304.88,372.09V367h9v5.13a4.87,4.87,0,0,0,1.61,3.62h0a4.89,4.89,0,0,1,1.6,3.62V408.8a2.59,2.59,0,0,1-2.59,2.59H304.26a2.59,2.59,0,0,1-2.59-2.59V379.33a4.89,4.89,0,0,1,1.6-3.62h0A4.87,4.87,0,0,0,304.88,372.09Z" style="fill:#F092DD"></path><path d="M304.88,372.09V367h9v5.13a4.87,4.87,0,0,0,1.61,3.62h0a4.89,4.89,0,0,1,1.6,3.62V408.8a2.59,2.59,0,0,1-2.59,2.59H304.26a2.59,2.59,0,0,1-2.59-2.59V379.33a4.89,4.89,0,0,1,1.6-3.62h0A4.87,4.87,0,0,0,304.88,372.09Z" style="isolation:isolate;opacity:0.2"></path><path d="M301.67,386.42v-7.09a4.89,4.89,0,0,1,1.6-3.62,4.87,4.87,0,0,0,1.61-3.62V367h9v5.13a4.87,4.87,0,0,0,1.61,3.62,4.89,4.89,0,0,1,1.6,3.62v7.09Z" style="fill:#fff;isolation:isolate;opacity:0.5"></path><path d="M317.06,396.72V408.8a2.59,2.59,0,0,1-2.59,2.59H304.26a2.59,2.59,0,0,1-2.59-2.59V396.72Z" style="fill:#fff;isolation:isolate;opacity:0.6000000000000001"></path><rect x="304.07" y="365.55" width="10.59" height="4.03" rx="0.53" transform="translate(618.73 735.13) rotate(180)" style="fill:#F092DD"></rect><path d="M290.32,360.44v-5.13h9v5.13a4.87,4.87,0,0,0,1.61,3.62h0a4.89,4.89,0,0,1,1.6,3.62V408.8a2.59,2.59,0,0,1-2.59,2.59H289.7a2.59,2.59,0,0,1-2.59-2.59V367.68a4.89,4.89,0,0,1,1.6-3.62h0A4.87,4.87,0,0,0,290.32,360.44Z" style="fill:#F092DD"></path><path d="M287.11,380.59V367.68a4.89,4.89,0,0,1,1.6-3.62,4.87,4.87,0,0,0,1.61-3.62v-5.13h9v5.13a4.87,4.87,0,0,0,1.61,3.62,4.89,4.89,0,0,1,1.6,3.62v12.91Z" style="fill:#fff;isolation:isolate;opacity:0.6000000000000001"></path><path d="M302.5,396.72V408.8a2.59,2.59,0,0,1-2.59,2.59H289.7a2.59,2.59,0,0,1-2.59-2.59V396.72Z" style="fill:#fff;isolation:isolate;opacity:0.6000000000000001"></path><rect x="289.51" y="353.9" width="10.59" height="4.03" rx="0.53" transform="translate(589.61 711.84) rotate(180)" style="fill:#F092DD"></rect></g><g id="freepik--Towel--inject-6"><path d="M334.17,398H281.12a6.48,6.48,0,0,0-6.49,6.48v2.91a6.49,6.49,0,0,0,6.49,6.49h64.23a6.49,6.49,0,0,0,6.48-6.49h0a6.48,6.48,0,0,0-6.48-6.48H335.12v-2A1,1,0,0,0,334.17,398Z" style="fill:#F092DD"></path><path d="M293.27,398H281.12a6.48,6.48,0,0,0-6.49,6.48v2.91a6.49,6.49,0,0,0,6.49,6.49h23.33a6.49,6.49,0,0,0,6.48-6.49h0a6.48,6.48,0,0,0-6.48-6.48H294.22v-2A1,1,0,0,0,293.27,398Z" style="fill:#fff;isolation:isolate;opacity:0.5"></path><path d="M294.22,400.93l-6.93-.2-3.47-.09c-.58,0-1.13,0-1.76,0a5.61,5.61,0,0,0-1.79.45,5.68,5.68,0,0,0-3.26,6.14,5.78,5.78,0,0,0,5.26,4.74c4.69.13,9.26.09,13.9.13l6.93,0a13.08,13.08,0,0,0,1.84-.05,4.52,4.52,0,0,0,1.9-.77,4.55,4.55,0,0,0,.41-7.17,4.53,4.53,0,0,0-1.8-1,6.6,6.6,0,0,0-1.92-.16l-6.93,0c-4.62,0-9.24,0-13.86.11a2.39,2.39,0,0,0-2,.85,2.3,2.3,0,0,0-.42,2.14,2.27,2.27,0,0,0,1.55,1.5,3.32,3.32,0,0,0,1,.08l.86,0,6.93-.1c4.62-.13,9.24-.2,13.87-.37-4.63-.18-9.25-.25-13.87-.38l-6.93-.1a10.28,10.28,0,0,1-1.58-.08,1.22,1.22,0,0,1,.56-2.36c4.62.09,9.24.07,13.86.11l6.93,0a5.74,5.74,0,0,1,1.52.13,3,3,0,0,1,1.21.68,3,3,0,0,1,1,2.49,3.07,3.07,0,0,1-1.29,2.36,2.89,2.89,0,0,1-1.28.53,11.41,11.41,0,0,1-1.61.06l-6.93,0-13.83.1A4.73,4.73,0,0,1,278,407a4.83,4.83,0,0,1,2.63-5.29,4.91,4.91,0,0,1,1.54-.47c.53-.06,1.13,0,1.7-.07l3.47-.08Z" style="opacity:0.2"></path><polygon points="335.12 400.93 294.22 400.93 335.12 399.42 335.12 400.93" style="opacity:0.2"></polygon></g></svg>
